<?xml version="1.0" standalone="no"?><!DOCTYPE svg PUBLIC "-//W3C//DTD SVG 1.1//EN" "http://www.w3.org/Graphics/SVG/1.1/DTD/svg11.dtd"><svg t="1692843768770" class="icon" viewBox="0 0 1024 1024" version="1.1" xmlns="http://www.w3.org/2000/svg" p-id="2919" xmlns:xlink="http://www.w3.org/1999/xlink" width="200" height="200"><path d="M840.9 545.2H502.8c-11.8 0-21.4-9.6-21.4-21.4V163.5c-215.6 0-389.5 178.9-381.3 396.5 7.4 196.5 170 359 366.4 366.5 210 7.9 384.1-153.9 395.9-359 0.7-12.2-9.4-22.3-21.5-22.3z" fill="#3259CE" p-id="2920"></path><path d="M566.3 100.5c-11.5-0.6-21.2 9-21.2 20.6v340.1c0 11.3 9.2 20.4 20.4 20.4h339.9c11.6 0 21.2-9.6 20.6-21.2-10.5-194-165.8-349.3-359.7-359.9z" fill="#3259CE" p-id="2921"></path></svg>